<svg xmlns="http://www.w3.org/2000/svg" width="9" height="18" viewBox="0 0 9 18" fill="none"><g clip-path="url(#clip0_20_709)"><path d="M9 7.93761L8.78435 9.76644C8.7484 10.07 8.50399 10.3052 8.20926 10.3052H5.39856V17.9545C5.10383 17.9848 4.80192 18 4.5 18C3.82428 18 3.16294 17.9317 2.51597 17.7951V10.3052H0.359425C0.158147 10.3052 0 10.1307 0 9.9258V7.63406C0 7.42159 0.165335 7.25464 0.359425 7.25464H2.51597V3.81703C2.52316 1.70742 4.13339 0 6.11741 0H8.64058C8.84185 0 9 0.174536 9 0.379427V2.67116C9 2.88364 8.83467 3.05059 8.64058 3.05059H6.84345C6.04553 3.05059 5.40575 3.73356 5.40575 4.57589V7.24705H8.43211C8.77716 7.24705 9.05032 7.57336 9.00719 7.93761H9Z" fill="white"/></g><defs><clipPath id="clip0_20_709"><rect width="9" height="18" fill="white"/></clipPath></defs></svg>