<svg xmlns="http://www.w3.org/2000/svg" width="18" height="18" viewBox="0 0 18 18" fill="none"><g clip-path="url(#clip0_20_715)"><path d="M13.4982 18H4.50179C2.01755 18 0 15.9824 0 13.4982V4.50179C0 2.01755 2.01755 0 4.50179 0H13.5054C15.9896 0 18.0072 2.01755 18.0072 4.50179V13.5054C18.0072 15.9896 15.9896 18.0072 13.5054 18.0072L13.4982 18ZM4.58795 1.34982C2.80016 1.34982 1.34982 2.80016 1.34982 4.58795V13.412C1.34982 15.1998 2.80016 16.6502 4.58795 16.6502H13.412C15.1998 16.6502 16.6502 15.1998 16.6502 13.412V4.58795C16.6502 2.80016 15.1998 1.34982 13.412 1.34982H4.58795ZM9.00359 13.1966C6.68448 13.1966 4.80335 11.3155 4.80335 8.99641C4.80335 6.6773 6.68448 4.79617 9.00359 4.79617C11.3227 4.79617 13.2038 6.6773 13.2038 8.99641C13.2038 11.3155 11.3227 13.1966 9.00359 13.1966ZM9.00359 6.15317C7.43119 6.15317 6.15317 7.43119 6.15317 9.00359C6.15317 10.576 7.43119 11.854 9.00359 11.854C10.576 11.854 11.854 10.576 11.854 9.00359C11.854 7.43119 10.576 6.15317 9.00359 6.15317ZM13.7998 5.39928C13.1392 5.39928 12.6007 4.86079 12.6007 4.20024C12.6007 3.53969 13.1392 3.0012 13.7998 3.0012C14.4603 3.0012 14.9988 3.53969 14.9988 4.20024C14.9988 4.86079 14.4603 5.39928 13.7998 5.39928Z" fill="white"/></g><defs><clipPath id="clip0_20_715"><rect width="18" height="18" fill="white"/></clipPath></defs></svg>