<?xml version="1.0" encoding="iso-8859-1"?>
<!-- Uploaded to: SVG Repo, www.svgrepo.com, Generator: SVG Repo Mixer Tools -->
<svg fill="#000000" height="800px" width="800px" version="1.1" id="Layer_1" xmlns="http://www.w3.org/2000/svg" xmlns:xlink="http://www.w3.org/1999/xlink" 
	 viewBox="0 0 512 512" xml:space="preserve">
<g>
	<g>
		<g>
			<path d="M169.48,92.904l-49.901-6.417c-4.387-0.561-8.388,2.531-8.952,6.911c-0.563,4.38,2.531,8.388,6.911,8.952l49.901,6.417
				c0.347,0.044,0.69,0.066,1.03,0.066c3.962,0,7.403-2.944,7.922-6.978C176.955,97.475,173.86,93.468,169.48,92.904z"/>
			<path d="M165.801,137.091l-38.496,13.568c-4.166,1.468-6.352,6.035-4.883,10.201c1.158,3.286,4.245,5.341,7.543,5.341
				c0.882,0,1.779-0.147,2.658-0.456l38.496-13.568c4.166-1.468,6.352-6.035,4.885-10.201
				C174.534,137.809,169.968,135.622,165.801,137.091z"/>
			<path d="M401.373,93.399c-0.563-4.381-4.578-7.467-8.951-6.912l-49.902,6.417c-4.38,0.563-7.476,4.571-6.912,8.952
				c0.518,4.035,3.959,6.978,7.921,6.978c0.34,0,0.685-0.022,1.03-0.066l49.902-6.417
				C398.842,101.788,401.937,97.781,401.373,93.399z"/>
			<path d="M384.697,150.659l-38.497-13.568c-4.168-1.468-8.734,0.72-10.2,4.883c-1.468,4.166,0.719,8.733,4.883,10.201
				l38.497,13.568c0.88,0.309,1.776,0.456,2.658,0.456c3.297,0,6.384-2.055,7.542-5.341
				C391.049,156.694,388.862,152.127,384.697,150.659z"/>
			<path d="M340.944,60.396c0-13.817-11.241-25.057-25.057-25.057h-0.303C303.753,13.714,280.9,0,256.001,0
				c-24.909,0-47.752,13.712-59.582,35.339h-0.304c-13.817,0-25.057,11.241-25.057,25.057c0,12.389,9.041,22.701,20.869,24.701
				l11.531,72.876c-7.986,4.194-13.449,12.566-13.449,22.195c0,13.817,11.241,25.057,25.057,25.057h15.828v250.07h-7.975
				c-9.722,0-17.633,7.91-17.633,17.632v0.807c-10.861,1.33-19.305,10.592-19.305,21.806v3.508c0,7.141,5.81,12.951,12.952,12.951
				h114.134c7.141,0,12.951-5.81,12.951-12.951v-3.508c0-11.215-8.445-20.478-19.305-21.806v-0.807
				c0-9.722-7.911-17.632-17.633-17.632h-7.975v-250.07h15.829c13.817,0,25.057-11.241,25.057-25.057
				c0-9.629-5.462-18.002-13.449-22.195l11.533-72.877C331.904,83.096,340.944,72.785,340.944,60.396z M256.001,15.994
				c15.894,0,30.697,7.309,40.415,19.345h-80.831C225.301,23.302,240.101,15.994,256.001,15.994z M304.032,489.548
				c3.304,0,5.992,2.689,5.992,5.993v0.465H201.977v-0.465c0-3.304,2.688-5.993,5.993-5.993H304.032z M289.081,471.29
				c0.904,0,1.639,0.735,1.639,1.638v0.626h-69.438v-0.626c0-0.903,0.735-1.638,1.639-1.638H289.081z M265.112,397.692v57.604
				h-18.225v-57.604H265.112z M246.889,381.698V205.226h18.225v176.472H246.889z M296.935,189.232h-81.869
				c-4.998,0-9.063-4.066-9.063-9.063c0-4.998,4.066-9.063,9.063-9.063h81.869c4.998,0,9.063,4.066,9.063,9.063
				C305.998,185.166,301.932,189.232,296.935,189.232z M212.422,112.285l-4.246-26.832h95.649l-4.246,26.832H212.422z
				 M297.049,128.279l-4.247,26.833h-73.604l-4.246-26.833H297.049z M196.114,69.46c-4.998,0-9.063-4.066-9.063-9.063
				s4.066-9.063,9.063-9.063h119.771c4.997,0,9.063,4.066,9.063,9.063s-4.067,9.063-9.063,9.063H196.114z"/>
		</g>
	</g>
</g>
</svg>